<svg width="27" height="11" viewBox="0 0 27 11" fill="none" xmlns="http://www.w3.org/2000/svg">
<path d="M4.75 0.75L1.04651 4.45349L0.75 4.75V6.75V10.75H6.75H24.75V2.75L22.75 0.75H4.75Z" stroke="white" stroke-width="0.5" stroke-linejoin="round"/>
<path d="M1.04651 4.45349L0.75 4.25L4.25 0.75H6.25L5.75 0.25H4.25L0.25 4.25V4.75" stroke="white" stroke-width="0.5" stroke-linejoin="round"/>
<path d="M0.75 6.75H0.25V4.75" stroke="white" stroke-width="0.5" stroke-linejoin="round"/>
<path d="M0.75 4.25L0.25 4.75" stroke="white" stroke-width="0.5" stroke-linejoin="round"/>
<path d="M25.75 10.25V9.75L26.75 8.75V9.25V9.75L25.75 10.75V10.25Z" stroke="white" stroke-width="0.5" stroke-linejoin="round"/>
<path d="M25.75 10.25L26.75 9.25" stroke="white" stroke-width="0.5" stroke-linejoin="round"/>
<path d="M25.75 8.25V7.75L26.75 6.75V7.25V7.75L25.75 8.75V8.25Z" stroke="white" stroke-width="0.5" stroke-linejoin="round"/>
<path d="M25.75 8.25L26.75 7.25" stroke="white" stroke-width="0.5" stroke-linejoin="round"/>
<path d="M25.75 6.25V5.75L26.75 4.75V5.25V5.75L25.75 6.75V6.25Z" stroke="white" stroke-width="0.5" stroke-linejoin="round"/>
<path d="M25.75 6.25L26.75 5.25" stroke="white" stroke-width="0.5" stroke-linejoin="round"/>
<path d="M25.75 4.25V3.75L26.75 2.75V3.25V3.75L25.75 4.75V4.25Z" stroke="white" stroke-width="0.5" stroke-linejoin="round"/>
<path d="M25.75 4.25L26.75 3.25" stroke="white" stroke-width="0.5" stroke-linejoin="round"/>
<path d="M24.75 4.75H24.25V8.75H24.75" stroke="white" stroke-width="0.5" stroke-linejoin="round"/>
<path d="M0.25 6.75L0.75 7.75" stroke="white" stroke-width="0.5"/>
</svg>
